<svg version="1.2" xmlns="http://www.w3.org/2000/svg" viewBox="0 0 1600 1600" width="1600" height="1600">
	<title>champs-logo-svg</title>
	<style>
		.s0 { fill: #f48c00 } 
	</style>
	<g>
		<path class="s0" d="m876 1262.8c-2.5-0.5-5.4-1.1-6.5-1.2-1.1-0.2-4-1.1-6.5-1.9-2.5-0.9-6.6-1.9-9-2.1-14.5-1.5-19.6-4.5-30.1-17.6-4.7-5.7-11.8-19.9-12.1-24.1-0.3-2.9 0.4-3.8 4-5.6 0.2 0-0.7-2.3-1.9-5-2.8-5.9-3-12-0.6-13.8 0.9-0.7 1.7-1.7 1.7-2.3 0-0.6 1-1.8 2.2-2.6 1.9-1.4 2.4-1.3 4.9 0.5l2.8 1.9 0.3-2.2c0.4-3.1 5.3-3.8 6.3-0.9 0.6 2.1 11.3 13.2 16.2 16.8 1.7 1.3 6.6 4.1 10.9 6.4 4.4 2.2 9 4.7 10.4 5.5 5.9 3.2 25.1 10.3 31.7 11.7 5.8 1.1 10.7 0.1 17.3-3.8 5-2.8 5-2.8 28.4-25.6 11.6-11.3 24.7-23.7 29.1-27.5 7.4-6.4 10.9-9.8 20-19.5 3.2-3.4 13.6-7.9 18.1-7.9 0.9 0 9.5-4 19.2-8.9 9.8-4.8 21.9-10.5 27-12.5 13.6-5.3 30.8-9.9 34.6-9.2 1.7 0.3 10.5 1.9 19.6 3.6 42.5 7.8 84.2 5.9 117.1-5.6 5.7-2 11.6-4.2 13.1-5 2.5-1.3 2.7-1.3 2 0.3-7 16.7-27.2 42.5-39 49.8-7.1 4.3-28 15-34.7 17.7-16.7 6.8-41.2 14-58.2 17.2-9.8 1.8-35.5 5.1-51.2 6.5l-11.3 1.1-15.7 9.8c-21.1 13.3-31.1 18.9-50.3 28.1-29.1 14.1-59.5 25.6-73.9 28-7.8 1.3-29.5 1.3-35.9-0.1z"/>
		<path class="s0" d="m319.5 694.8c-35.6-2.5-59.6-20.7-68.5-51.8-3-10.4-3.7-30.1-1.7-43.5 9.4-61.1 57.6-95 128.8-90.3 11.7 0.8 31.7 4.1 33 5.5 0.6 0.7-0.6 6.4-8.1 39.9l-2.1 9.1-10.2-3.5c-9.3-3.2-11.4-3.6-24.2-4-10.9-0.3-15.5-0.1-20.5 1.2-21.6 5.5-35.8 21.5-39.7 44.6-4 23.3 4.2 39.5 22.9 45.1 5.9 1.8 8.7 2.1 19.1 1.7 11.1-0.4 13.3-0.8 24.2-4.6 6.6-2.2 12-4 12.1-3.9 0.1 0.1-2.2 11-5.1 24.2l-5.2 24-5.9 1.8c-13.6 4.1-31.4 5.8-48.9 4.5z"/>
		<path class="s0" d="m1260 694.8c-5.9-0.3-15.1-1.8-20.8-3.2-9.6-2.4-23.6-7.7-25.5-9.5-0.7-0.7 3.9-24.7 7.8-41.9l0.6-2.3 4.5 3.2c6.5 4.4 19.8 10.4 27.5 12.3 9.3 2.3 24.2 2.1 29.6-0.3 4.7-2.2 7.3-6.2 7.3-11.5 0-8.1-4.2-12.4-18.9-19.6-19.1-9.4-30.9-18.9-36-28.8-5-9.8-6.5-26.9-3.5-38.6 4.2-16.2 15.2-29.5 30.8-37.1 12.9-6.3 24.2-8.6 42.2-8.6 15.6 0 28.4 1.7 41.4 5.5 13.4 3.9 14.3 4.3 13.8 6.9-0.3 1.2-2.2 10.8-4.4 21.4l-3.8 19.1-6.8-3.4c-12.2-6.1-21.2-8.6-33.4-9.2-12.7-0.5-16.7 0.4-21 4.9-2.4 2.5-2.9 3.9-2.9 7.9 0 3.3 0.7 5.8 2 7.7 2.2 3 11.8 9.5 26.2 17.8 10.3 6 21.9 16.5 25.6 23.2 3.8 7.2 5.7 15.5 5.7 25.8 0 15.9-4.7 27.9-15 38.2-15.6 15.7-39.3 22.2-73 20.1z"/>
		<path class="s0" d="m401.1 688.8c10.6-50.4 37.8-177 38.1-177.3 0.3-0.3 12.4-0.4 26.9-0.3l26.5 0.3-6.8 31.5c-3.7 17.3-6.7 32.3-6.8 33.3 0 1.6 2 1.7 31.7 1.5l31.8-0.3 7-33 7.1-33 27.1-0.3 27.1-0.2-1.5 6.7c-5.7 27.4-36.5 172.2-36.9 173.6-0.5 1.6-2.7 1.7-27.5 1.7-14.8 0-26.9-0.2-26.9-0.4 0-0.3 3.1-15 7-32.8 3.8-17.8 7-32.9 7-33.5 0-1-7-1.3-31.8-1.3h-31.7l-6.9 32.8c-3.8 18-7.1 33.3-7.4 34-0.3 0.9-6.7 1.2-27.2 1.2h-26.8z"/>
		<path class="s0" d="m593.7 684.1c2.6-4.8 25.3-45.8 50.3-90.9l45.5-82.1 33.8-0.1c18.5 0 33.7 0.4 33.7 0.9 0 0.5 4.5 40.6 10 89.2 5.5 48.6 10 89.2 10 90.2 0 1.6-2 1.7-27.4 1.7h-27.3l-0.7-10.2c-0.4-5.7-0.9-13.1-1.3-16.5l-0.6-6.3h-27.9-27.9l-8 16.5-8 16.5h-29.5-29.5zm123.3-68.8c0-1-0.5-9.2-1-18.3-0.6-9.1-1.1-22.9-1.1-30.7-0.1-13.1-1-17.2-2.6-12.5-1.4 3.9-7.7 18-17.7 39.4-5.8 12.5-10.6 23-10.6 23.3 0 0.3 7.4 0.5 16.5 0.5 15.1 0 16.5-0.2 16.5-1.7z"/>
		<path class="s0" d="m798.2 674.3c2.1-10.4 10.7-51.2 19.1-90.8l15.2-72 38.3-0.3 38.2-0.2v3.8c0 2.1 1.4 26.9 3.1 55.2 1.7 28.3 2.9 55 2.6 59.3-0.2 4.8 0 7.6 0.6 7.4 0.5-0.1 2.4-4.4 4.1-9.3 1.7-5 13.7-33.2 26.6-62.7l23.5-53.6 41.3-0.1c25.1 0 41.2 0.4 41.2 0.9 0 0.6-8.5 41.3-19 90.6-10.4 49.3-19 89.9-19 90.1 0 0.2-12 0.4-26.6 0.4h-26.6l0.5-2.7c0.8-3.8 23.1-108.4 25.8-121.1 1.2-5.6 1.9-10.5 1.5-10.9-0.8-0.9-0.7-1.2-6.4 12.4-2.8 6.8-16.4 37-30.3 67.3l-25.2 55h-24.9-24.8v-2.8c0-1.6-1.6-28.3-3.5-59.3-1.9-31-3.5-60.1-3.5-64.6 0-8.5-1.4-11.2-2.4-4.5-3.3 22.5-8.2 48.3-16.1 85.6-5.2 24.6-9.5 44.9-9.5 45.1 0 0.3-10.7 0.5-23.9 0.5h-23.9z"/>
		<path class="s0" d="m1046 691.7c0-1.4 36.6-175.6 37.6-178.9 0.5-1.7 3-1.8 35.2-1.8 40.9 0 54.9 1 65.8 4.5 9.3 2.9 19 9 23.9 14.9 18.4 22.5 13.7 63.4-9.8 84.1-6.6 5.8-20.8 12.9-31.2 15.5-9 2.3-27.2 3.9-44.5 4h-11.5l-6.1 29.3-6 29.2-26.7 0.3c-21.9 0.2-26.7 0-26.7-1.1zm102.5-99.1c9.1-4.2 13.6-11.7 13.8-22.6 0.1-5.3-0.4-7.5-2.2-10.6-4.2-7.1-9-9.2-21.7-9.3l-9-0.1-4.3 20.8c-2.3 11.4-4.5 21.5-4.7 22.5-0.5 1.5 0.5 1.7 11.3 1.7 10.3 0 12.5-0.3 16.8-2.4z"/>
		<path class="s0" d="m516 493.5c0-0.5 14.2-8.2 29.9-16.2 16.7-8.5 19.5-10.6 35.6-26.9 12.9-13.1 23.7-20.9 42-30.4 5.5-2.9 13.2-7.1 17-9.4 3.9-2.4 11.3-6.8 16.5-9.9 8.2-4.9 12.1-8.3 29.4-25.7 19.7-19.9 19.9-20.1 22.6-27.8 5.8-16.1 10.5-26.1 23.9-51.2 12.9-24.1 25.5-42.9 44.2-66.1 7.3-9.1 18.4-23.5 28.3-36.7 5.1-7 11.6-19.7 11.6-22.9 0-1.1 0.8-2.7 1.8-3.5 2-1.7 13.9-5.9 23.7-8.3 3.9-0.9 9.5-2.3 12.5-3 9.7-2.4 38.2-6.8 55.5-8.6 6.1-0.6 11.9-1.2 13-1.4 1.1-0.1 4.7-0.5 8-0.9 18.4-2 46.4-3.7 71.5-4.2 26-0.6 31.9-0.3 67.5 2.5 62.7 4.9 64.7 5.4 88.3 21.5 10.3 6.9 19.9 12.5 25.2 14.6 6.3 2.5 17.6 10.1 23.1 15.5 8.8 8.7 13.5 16.9 31.8 54.8 8.8 18.2 12.4 27.3 15.1 38.4 1.2 4.5 1.1 5.4-0.3 7.7-1.7 2.5-1.6 2.9 0.8 8.8 4.1 10.2 3.3 14.8-2.7 14.8-1.1 0-1.8 0.5-1.5 1.3 0.7 2-2.2 6.7-4.1 6.7-1 0-2.7-0.7-3.8-1.5-1.2-0.9-3.1-1.2-4.9-0.9-2.2 0.4-3.5 0-4.6-1.3-2.7-3.2-8.9-14.1-10.3-18-3.2-9-8-17.2-13.7-23.5-8.3-9.3-9.5-8.9-5.4 2 1.7 4.8 3.5 11.7 3.9 15.4 0.7 5.9 0.5 6.9-1.3 8.7-1.2 1.2-2.9 2.1-3.8 2.1-1.8 0-12.3-10.9-19.7-20.5-15.9-20.5-28-43.9-36-69.5l-2.7-8.6-9.5-1.1c-5.6-0.7-10.3-1.8-11.2-2.6-4.1-3.7-71.5-4.6-82.3-1.2-0.9 0.3-3.4 0.8-5.5 1-9.8 1.3-36.4 7.9-46.9 11.7-2.2 0.8-7.1 2.5-11 3.6-3.8 1.2-9.3 2.9-12.2 3.7-2.8 0.9-6.3 1.8-7.7 2.1-1.4 0.2-3.7 0.9-5.1 1.4-4.6 1.7-27.4 6.4-39 7.9-4.4 0.6-10.2 1.4-13 1.8-2.7 0.4-5.9 0.7-7 0.7-1.7 0.1-2 0.9-2.2 6.1-0.6 13-3.7 30.4-6.9 37.2-0.7 1.7-1.4 3.4-1.4 3.8 0 2.8-13.3 27-18.8 34.3-2.4 3.1-2.4 3.4-0.9 7 2.4 5.6 3.9 13.6 3.6 18.4-0.3 3.6 0.3 5.5 4 11.7 2.4 4.1 5.4 9.9 6.6 13 3.3 8.3 6.7 15.4 16.1 34.8l8.4 17.4 4.8-4c2.6-2.1 6.7-4.9 9.2-6.1 2.5-1.3 8.1-4.7 12.5-7.8 15.1-10.4 38.7-23.2 53.5-29.2 2.5-0.9 6.3-2.5 8.4-3.5l3.9-1.7 7.1 7.4c3.9 4.1 7.8 8.7 8.6 10.3 0.8 1.7 2.2 4.2 3.2 5.6 4.4 6.5 15.3 35 19.6 50.9 5.5 20.2 6.9 28.8 5.3 31.8-1.2 2.3-7.7 3.7-25.5 5.2-16.3 1.4-59.1 1-61.7-0.6-0.5-0.3-6.6-1.1-13.6-1.9-14-1.6-20.4-2.5-33.3-5.1-4.7-0.9-10.5-2-13-2.4-2.5-0.4-8.1-1.5-12.5-2.5-8.1-1.7-10.1-2.1-23.5-4.9-4.1-0.8-10.9-2.2-15-3.1-40.3-8.6-83.5-11.3-115-7.1-9 1.3-31.1 6.9-47 12.1-2.5 0.8-6.7 2.1-9.5 2.9-2.7 0.7-8.6 2.3-13 3.6-9.8 2.7-32.1 8.2-43 10.5-4.4 0.9-9.9 2.1-12.2 2.6-2.3 0.5-6.1 1.1-8.5 1.4-2.4 0.3-5 0.8-5.8 1-0.8 0.2-4.4 0.7-7.9 1-3.6 0.4-6.7 0.8-7.1 1-1.2 0.7-55 2.7-55 2z"/>
	</g>
	<g>
		<path class="s0" d="m339.5 1459.4c-7.7-4.2-17.2-16.2-23.4-29.6-7-14.8-21.8-51.2-28-68.5-3.3-9.2-7.1-19.9-8.6-23.8-1.4-3.8-2.9-9.7-3.2-13.2-0.5-5.7-0.3-6.6 2.1-10.1 1.4-2.1 5.4-5.9 8.9-8.4 19-13.9 29.6-17.6 68.3-24.2 25-4.2 30.2-5.7 100.9-29.6 29.7-10 68.2-22.9 85.5-28.7 58-19.3 90.8-31 93.3-33.3 0.5-0.4-0.5-3.5-2.2-6.8-4.4-8.8-5.6-14.4-4.2-19.4 1.7-5.4 8.5-12.2 18.6-18.3 4.4-2.7 12.8-8.2 18.7-12.1 14.6-9.9 19.6-11.2 29.1-7.2 6.8 2.8 9.1 4.9 14.5 13.3 5.8 9.1 11.8 14.7 20.1 18.7 3.6 1.7 8.9 4.7 11.7 6.5 7.1 4.6 16 8.1 24.3 9.5 8.1 1.4 16 0.3 27.1-3.8 6.5-2.5 7-2.8 7-5.6 0-5.6 2.8-9.7 7.4-10.9 6.9-1.9 22.6-9.1 32.1-14.8 5-3 12.4-7 16.5-8.9 6.7-3.1 8.6-3.5 18.6-4 31.6-1.4 54.2 13.6 58.3 38.8 1.6 9.8 1.3 24.5-0.5 31.4-2.1 7.8-8.9 15-18.7 20.2-6.9 3.6-6.9 3.6-13.1 2.4-19.9-3.8-50.6-21.1-66.1-36.9-4.4-4.6-8.1-5.3-10.9-2.2-1.3 1.5-2.6 1.8-5.6 1.4-3.2-0.5-4.3-0.1-6.4 2-1.4 1.4-2.6 3.5-2.6 4.5 0 1.1-0.7 2.5-1.5 3.2-1.8 1.5-2 9.8-0.3 13.5 0.9 1.9 0.9 2.8 0 3.7-3.3 3.3-0.3 16.3 6.7 29.4l4 7.3-3.6 1.3c-2.8 1-4 2.3-5.8 6.3-1.3 2.7-2.8 7-3.5 9.5-1.8 6.7-6.9 18-10 22-3.2 4-5 12.6-5 23.4 0 10.5-1.6 15.3-6.9 20.6-4.2 4.2-6.2 5.1-24.1 11.4-10.8 3.8-21.9 7.1-24.8 7.3-5.4 0.5-5.4 0.5-10.4-4.7-2.7-2.9-6.1-7.7-7.5-10.6-1.8-4.1-2.9-5.4-4.1-5-1 0.3-7.1 1.8-13.7 3.5-20.8 5.2-54.7 17.2-112 39.6-38.1 14.9-68.2 26.1-90.5 33.7-9.6 3.2-24.5 9-33 12.7-14 6.2-81.1 33.1-82.4 33.1-0.6 0-5.1 2.2-16.6 8-8 4.1-19.4 5.2-24.5 2.4z"/>
		<path class="s0" d="m632.9 1099.9c-42.6-2.8-74.1-26.3-88.3-65.7-5.8-16.3-7-25.4-7-53.2 0-18.9 0.4-28.6 1.7-37.5 9.6-66.1 31.8-119.2 63.2-151 26.8-27.3 55.3-38.6 96.5-38.6 18.2 0 28.9 1.7 42.4 6.5 17.8 6.4 31.2 15.8 41.8 29.6 15.8 20.5 23 45.5 23 79.1-0.1 80.2-29.7 161.4-72.5 199.1-27.8 24.5-59.4 34.4-100.8 31.7zm29.9-76.2c8.2-5.7 17.9-23 25.7-45.7 16.3-47.8 27-112.3 22.1-134.8-2.7-12.9-7-17.2-16.8-17.2-7.1 0.1-12.3 2.6-18.4 9.1-6.3 6.8-11 15.2-17.3 31-16 40.2-29.7 112.9-26.2 138.7 1.3 9.8 4.8 17.4 9.4 20.3 4.9 3.1 16 2.4 21.5-1.4z"/>
		<path class="s0" d="m1144 1099.9c-24.3-1.2-53.8-7.6-70.6-15.4-6.1-2.7-7.4-3.8-7-5.2 0.3-1 3.7-16.9 7.6-35.3 3.9-18.4 7.2-34 7.5-34.7 0.3-0.9 1.7-0.5 4.7 1.1 7.6 4.2 22.1 9.5 36.4 13.3 13.5 3.6 14.4 3.7 31.9 3.7 16.1 0.1 18.8-0.1 25.5-2.2 23.2-7.3 34.6-22.6 31.9-42.8-1.9-14.1-13.4-23.2-33.9-27-14.5-2.6-51.8-1.3-71.9 2.6-3 0.5-5.6 0.9-5.8 0.7-0.2-0.3 39.1-184.3 42.2-197.4l0.5-2.3h100.5c55.3 0 100.5 0.3 100.5 0.8 0.1 0.4-3.6 17.9-8.2 38.9l-8.2 38.3-60.5 0.2-60.5 0.3-4.7 20.5c-2.6 11.3-5 21.7-5.3 23.2l-0.5 2.7h12.9c37.1 0.1 64.6 11.9 82.6 35.3 17.1 22.2 22.6 56.2 14.4 88.3-2.8 10.7-11.5 28.5-18.9 38.2-29.4 39-77.6 57.3-143.1 54.2z"/>
		<path class="s0" d="m242.2 1076.8c11.9-57.4 30.2-85.6 78.2-121.3 6.1-4.5 21.2-15.1 33.6-23.5 45.2-30.7 57.6-41.4 64.6-55.5 8.7-17.7 4-35.6-11.4-43.2-5.2-2.6-6.8-2.8-19.1-3.2-28.5-0.7-57 6.2-78.3 19-4.3 2.6-7.8 4.2-7.8 3.6 0-0.7 3.7-18.6 8.2-39.9l8.2-38.8 7.1-2.9c27.6-11.4 60.5-17.1 99.1-17.2 21.4 0 31.7 1.4 44.5 6.1 21.8 7.9 36.9 21.1 46.5 40.5 5.5 11.1 8.3 21.9 9.1 35.1 1.6 27.2-6.7 53.3-23.8 74.7-15.5 19.2-31.4 30.7-88.5 63.7-29.6 17.1-47.3 30-50.9 37.1-0.8 1.5-1.5 3-1.5 3.4 0 0.3 28.8 0.5 64 0.5 54.5 0 64 0.2 64 1.4 0 0.8-3.6 18.5-8 39.4-4.4 20.8-8 38.2-8 38.5 0 0.4-52.6 0.7-116.8 0.7h-116.9z"/>
		<path class="s0" d="m794.2 1076.8c11.9-57.4 30.2-85.6 78.2-121.3 6.1-4.5 21.2-15.1 33.6-23.5 45.2-30.7 57.6-41.4 64.6-55.5 8.7-17.7 4-35.6-11.4-43.2-5.2-2.6-6.8-2.8-19.1-3.2-28.5-0.7-57 6.2-78.3 19-4.3 2.6-7.8 4.2-7.8 3.6 0-0.7 3.7-18.6 8.2-39.9l8.2-38.8 7.1-2.9c27.6-11.4 60.5-17.1 99.1-17.2 21.4 0 31.7 1.4 44.5 6.1 21.8 7.9 36.9 21.1 46.5 40.5 5.5 11.1 8.3 21.9 9.1 35.1 1.6 27.2-6.7 53.3-23.8 74.7-15.5 19.2-31.4 30.7-88.5 63.7-29.6 17.1-47.3 30-50.9 37.1-0.8 1.5-1.5 3-1.5 3.4 0 0.3 28.8 0.5 64 0.5 54.5 0 64 0.2 64 1.4 0 0.8-3.6 18.5-8 39.4-4.4 20.8-8 38.2-8 38.5 0 0.4-52.6 0.7-116.8 0.7h-116.9z"/>
		<path class="s0" d="m1046.2 471.3c-0.4-10.4-2.4-18.3-11.7-46.5-7.6-23-18.2-42.7-27.2-50.7-3.3-3-5.3-5.4-4.7-5.9 1.1-1 10.8-5 22.4-9.3 6.9-2.5 11.1-3.3 22.2-4.2 18.1-1.4 26.5-0.3 37.3 4.8 25.6 12.3 40.1 28.1 44.9 48.7 3.7 16.2 3.9 24.7 0.7 36.8-2.5 9.5-5.7 15.2-9.9 17.4-8 4.1-32.9 10.5-53.2 13.7-4.1 0.6-9.1 1.5-11 2-1.9 0.5-4.9 0.9-6.5 0.9h-3.1z"/>
	</g>
</svg>